HIERARCHY
ROOT Hips
{
  OFFSET -32.5998 29.0326 120.673
  CHANNELS 6 Xposition Yposition Zposition Zrotation Xrotation Yrotation
  JOINT LeftUpLeg
  {
    OFFSET 8.64259 1.95398 -2.38835
    CHANNELS 3 Zrotation Xrotation Yrotation
    JOINT LeftLeg
    {
      OFFSET 43.7702 0 0
      CHANNELS 3 Zrotation Xrotation Yrotation
      JOINT LeftFoot
      {
        OFFSET 40.6238 0 0
        CHANNELS 3 Zrotation Xrotation Yrotation
        JOINT LeftToeBase
        {
          OFFSET 12.7242 0 0
          CHANNELS 3 Zrotation Xrotation Yrotation
          End Site
          {
            OFFSET 0 0 0
          }
        }
      }
    }
  }
  JOINT RightUpLeg
  {
    OFFSET -8.2249 1.95398 -2.59336
    CHANNELS 3 Zrotation Xrotation Yrotation
    JOINT RightLeg
    {
      OFFSET 43.5653 0 0
      CHANNELS 3 Zrotation Xrotation Yrotation
      JOINT RightFoot
      {
        OFFSET 40.6238 0 0
        CHANNELS 3 Zrotation Xrotation Yrotation
        JOINT RightToeBase
        {
          OFFSET 12.7242 0 0
          CHANNELS 3 Zrotation Xrotation Yrotation
          End Site
          {
            OFFSET 0 0 0
          }
        }
      }
    }
  }
  JOINT Spine
  {
    OFFSET 0.165834 0.87714 6.61349
    CHANNELS 3 Zrotation Xrotation Yrotation
    JOINT Spine1
    {
      OFFSET 7.38963 1.71661e-005 0
      CHANNELS 3 Zrotation Xrotation Yrotation
      JOINT Spine2
      {
        OFFSET 11.9445 1.14441e-005 0
        CHANNELS 3 Zrotation Xrotation Yrotation
        JOINT Spine3
        {
          OFFSET 14.7254 4.19617e-005 0
          CHANNELS 3 Zrotation Xrotation Yrotation
          JOINT Spine4
          {
            OFFSET 10.9679 0 0
            CHANNELS 3 Zrotation Xrotation Yrotation
            JOINT RightShoulder
            {
              OFFSET 2.46616 -1.6653 3.69651
              CHANNELS 3 Zrotation Xrotation Yrotation
              JOINT RightArm
              {
                OFFSET 13.0012 0 0
                CHANNELS 3 Zrotation Xrotation Yrotation
                JOINT RightForeArm
                {
                  OFFSET 28.7848 1.62311e-005 0
                  CHANNELS 3 Zrotation Xrotation Yrotation
                  JOINT RightHand
                  {
                    OFFSET 26.5688 1.62095e-005 0
                    CHANNELS 3 Zrotation Xrotation Yrotation
                    End Site
                    {
                      OFFSET 0 0 0
                    }
                  }
                }
              }
            }
            JOINT LeftShoulder
            {
              OFFSET 2.38034 -1.29275 -3.7523
              CHANNELS 3 Zrotation Xrotation Yrotation
              JOINT LeftArm
              {
                OFFSET 16.3182 6.07031e-005 0
                CHANNELS 3 Zrotation Xrotation Yrotation
                JOINT LeftForeArm
                {
                  OFFSET 27.0901 0 0
                  CHANNELS 3 Zrotation Xrotation Yrotation
                  JOINT LeftHand
                  {
                    OFFSET 24.5451 1.51738e-005 0
                    CHANNELS 3 Zrotation Xrotation Yrotation
                    End Site
                    {
                      OFFSET 0 0 0
                    }
                  }
                }
              }
            }
            JOINT Neck
            {
              OFFSET 5.0226 -0.0266342 0
              CHANNELS 3 Zrotation Xrotation Yrotation
              JOINT Head
              {
                OFFSET 6.69364 2.86102e-005 0
                CHANNELS 3 Zrotation Xrotation Yrotation
                End Site
                {
                  OFFSET 0 0 0
                }
              }
            }
          }
        }
      }
    }
  }
}
MOTION
Frames:	10
Frame Time:	0.0416667
-121.084 11.4919 119.208 -15.1992 -2.89378 -92.1513 -168.625 -10.6209 96.3617 -20.9366 1.77658 -0.822754 71.6043 6.52232 -4.01782 20.3844 -8.95397 10.3321 160.574 -8.90581 74.0623 -23.8352 -10.4635 2.0503 70.1132 -5.09039 3.96529 35.3638 -2.94649 0.0686217 -0.753662 7.95452 -89.2322 10.9709 -1.14488 1.63649 -0.700601 -1.07174 1.68528 -23.2347 -1.58376 1.2168 -3.22206 -1.58374 1.21681 86.241 -17.8024 -121.321 -50.7413 63.1501 64.791 -19.4252 19.0739 -160.165 -12.9843 -5.31351 41.073 -89.8339 -31.8383 74.238 38.4855 -48.1758 50.0433 10.9177 -31.1077 -160.646 13.4561 4.33872 26.7196 51.8829 2.32008 -6.35613 -16.3176 5.60739 3.40684 
-120.967 12.028 118.804 -14.1895 -0.889081 -92.7603 -168.773 -10.1359 95.2203 -20.2 1.11787 -1.38682 70.7434 6.46879 -2.96103 20.7525 -8.5988 10.0607 161.615 -5.92829 74.2905 -26.2043 -13.2667 1.33431 69.9853 -5.38869 0.716278 36.3612 -3.43875 0.39847 -0.648706 7.8209 -89.0359 11.2353 -0.842504 2.00296 -0.436946 -0.753547 2.03807 -22.9652 -1.40543 1.65731 -2.95252 -1.40544 1.65731 85.5183 -18.9984 -122.103 -53.3483 63.6189 66.2412 -19.4629 17.9402 -160.206 -13.4908 -5.69978 42.3388 -87.2782 -28.4239 78.0782 25.1221 -46.1056 42.431 11.8484 -37.4085 -161.291 14.575 4.75238 27.3154 51.6595 0.966329 -9.65998 -16.5848 6.00306 6.17215 
-120.992 11.9356 118.917 -14.2062 -1.20878 -92.9532 -168.962 -10.2657 95.0356 -20.0026 1.54306 -1.30222 70.5302 6.421 -2.62987 20.5296 -8.42173 9.50419 161.291 -6.04228 73.9473 -26.0006 -13.1311 1.47845 70.0137 -5.35916 1.07741 36.9354 -3.65305 0.179269 -0.670797 7.79954 -89.0288 11.2788 -0.882677 2.0213 -0.393482 -0.792885 2.05816 -22.9219 -1.44929 1.6627 -2.9092 -1.44929 1.66269 85.8405 -18.5229 -121.719 -49.4418 63.8023 63.639 -19.814 19.6153 -160.145 -13.0262 -5.44166 41.9306 -87.7715 -28.5681 77.1572 27.0661 -45.803 43.933 11.8138 -36.729 -161.276 15.6059 5.16983 28.0172 51.3272 1.04638 -9.65151 -16.3809 6.07257 6.00727 
-121 11.9262 118.941 -14.1635 -1.28357 -92.9046 -168.986 -10.1176 95.089 -20.1872 1.14564 -1.27116 70.6528 6.31431 -3.31336 20.7194 -8.46882 9.7865 161.236 -6.0516 73.9264 -25.8507 -13.4405 1.52823 69.9383 -5.34891 1.0505 36.3087 -3.33515 -0.0919873 -0.634329 7.77085 -89.0483 11.3356 -0.818561 1.97714 -0.336651 -0.730792 2.01123 -22.8649 -1.37487 1.63985 -2.85231 -1.37487 1.63985 86.4744 -18.0603 -120.601 -44.9897 63.9318 60.4959 -20.2291 21.7249 -160.23 -12.3816 -5.14351 41.8049 -88.0938 -28.8237 76.6033 27.4089 -45.6629 44.0076 12.1646 -37.3839 -161.151 15.7856 5.3064 28.4942 51.0212 0.917326 -9.95996 -16.4311 5.99581 6.91412 
-121.004 11.8862 119.049 -14.1833 -1.45289 -93.0184 -169.178 -10.2462 94.8416 -20.0752 1.2305 -1.18967 70.6114 6.36107 -2.98407 20.548 -8.43892 9.55479 160.946 -5.99619 73.6324 -25.8374 -13.7341 1.66699 69.7616 -5.28716 0.778753 38.3657 -4.29699 0.33157 -0.648756 7.77303 -89.069 11.3316 -0.857004 1.93961 -0.340552 -0.770821 1.97545 -22.8695 -1.40024 1.59249 -2.8569 -1.40025 1.59252 86.5241 -17.8235 -120.654 -46.4113 63.9697 61.894 -20.459 22.3812 -160.481 -12.8537 -5.3644 41.9175 -88.3304 -29.4404 76.3325 28.267 -45.923 44.3162 12.4087 -38.0076 -161.13 15.817 5.39722 28.9622 51.2745 1.23454 -9.04135 -16.4684 5.87762 5.91872 
-120.983 11.8389 119.105 -14.1806 -1.66736 -92.9321 -169.282 -10.1662 94.8787 -20.2233 1.2874 -1.06064 70.7835 6.43008 -3.03519 20.9495 -8.50557 10.0923 160.886 -6.25433 73.7104 -25.578 -13.3322 1.7423 69.9485 -5.40182 0.950645 37.9646 -4.12829 0.364469 -0.63742 7.76707 -89.1107 11.3388 -0.853805 1.85679 -0.333213 -0.771233 1.89256 -22.8629 -1.37232 1.51447 -2.85029 -1.37229 1.51447 86.8705 -17.606 -120.006 -45.4927 63.8384 61.1577 -20.841 23.8058 -160.678 -12.9119 -5.39874 41.9856 -88.5029 -29.7627 76.0987 27.9587 -45.9787 43.8849 12.9028 -39.1775 -161.007 15.6809 5.41758 29.3127 51.2712 1.38096 -8.67859 -16.5126 5.78845 5.93353 
-120.993 11.8892 119.018 -14.1845 -1.36032 -93.0157 -169.167 -10.2426 94.8612 -20.0741 1.56564 -1.18892 70.4889 6.35041 -2.79337 20.9749 -8.35883 9.84756 161.064 -6.02654 73.7197 -25.8867 -13.3992 1.57893 70.0178 -5.38713 1.08194 38.0075 -4.09398 0.00412144 -0.566647 7.77031 -89.1245 11.336 -0.719466 1.81536 -0.336053 -0.638874 1.84524 -22.8652 -1.23175 1.5153 -2.85256 -1.23173 1.51532 87.2009 -17.5655 -119.263 -44.8197 63.7686 60.5663 -21.2113 25.2521 -160.948 -13.3446 -5.55725 41.7455 -88.7261 -30.0238 75.7512 26.2311 -45.2784 42.6578 13.6488 -41.0689 -160.684 15.4528 5.35466 29.3344 50.8593 1.29189 -8.73876 -16.1608 5.63362 6.6778 
-120.989 11.8876 119.02 -14.2177 -1.49683 -93.0409 -169.117 -10.2593 94.9173 -20.0489 1.64239 -1.20033 70.6117 6.44367 -2.72238 20.2645 -8.32232 9.05131 160.967 -6.073 73.6633 -25.8451 -13.5024 1.65412 69.9207 -5.36133 0.886529 38.1341 -4.16875 0.138471 -0.550977 7.78458 -89.1756 11.3073 -0.712322 1.71246 -0.364611 -0.636271 1.74212 -22.8947 -1.19402 1.41928 -2.88201 -1.194 1.41931 87.714 -16.918 -118.504 -43.7177 63.7405 59.8719 -21.5992 26.699 -161.225 -13.6361 -5.64441 41.4465 -88.9734 -30.5246 75.4361 27.0914 -45.9306 42.9758 13.8932 -41.5003 -160.742 15.9249 5.62203 30.0573 51.0466 1.67715 -7.65208 -16.0862 5.43726 5.97785 
-120.997 11.8927 118.965 -14.1058 -1.36364 -92.9441 -169.056 -10.2035 95.0113 -19.9708 1.65815 -1.21948 70.6016 6.42472 -2.84007 20.4516 -8.45002 9.47675 161.147 -6.02996 73.879 -25.8491 -13.5558 1.58423 69.9778 -5.42655 0.730487 37.8941 -4.08844 0.301652 -0.496141 7.76655 -89.217 11.3426 -0.622223 1.62147 -0.329171 -0.550242 1.64726 -22.8594 -1.08073 1.35957 -2.84676 -1.08072 1.3596 88.0794 -16.5988 -117.851 -42.5277 63.5954 59.0362 -21.9258 28.224 -161.509 -13.9057 -5.69271 40.9455 -89.227 -30.899 75.0742 26.6301 -46.0987 42.3131 14.3023 -42.3737 -160.571 15.6803 5.56697 30.1835 50.9853 1.81188 -7.08557 -15.9997 5.24567 5.76892 
-120.995 11.8666 118.994 -14.1263 -1.47401 -93.009 -169.19 -10.1819 94.8744 -20.0907 1.55945 -1.1513 70.5413 6.40644 -2.65681 21.0355 -8.36036 9.91214 161.048 -6.09839 73.7875 -25.7785 -13.2696 1.6348 70.1165 -5.48779 0.881021 37.6953 -4.01096 0.359662 -0.477869 7.77889 -89.2452 11.3216 -0.599146 1.56254 -0.350209 -0.52982 1.58737 -22.8808 -1.04102 1.31029 -2.86814 -1.04103 1.31029 88.4121 -16.3056 -117.25 -42.4312 63.6039 59.0881 -22.1736 29.1693 -161.789 -14.1948 -5.72263 40.2683 -89.3991 -31.0221 74.7891 24.1616 -45.4546 40.9414 15.0111 -43.9335 -160.042 14.7667 5.1265 29.2744 51.1468 1.95812 -6.56259 -16.0736 5.1011 5.52947 
